<svg id="Capa_1" enable-background="new 0 0 497 497" height="512" viewBox="0 0 497 497" width="512" xmlns="http://www.w3.org/2000/svg"><g><path d="m194.837 497h-39.457l-55.41-64.89c20.506-58.418 63.931-80.822 63.931-80.822h104.166z" fill="#ff889e"/><path d="m397.03 432.11-55.41 64.89h-146.783v-29.633c0-22.687 8.441-44.566 23.666-61.377l49.564-54.703h65.031c.001 0 43.426 22.405 63.932 80.823z" fill="#ff748f"/><path d="m367.389 18.147c24.197-24.197 63.427-24.197 87.623 0 24.197 24.196 24.197 63.427 0 87.623-24.197 24.197-71.146 31.916-95.343 7.719-24.196-24.195-16.477-71.145 7.72-95.342z" fill="#4f4c5f"/><path d="m44.593 218.676c0-112.434 91.472-203.907 203.907-203.907s203.907 91.472 203.907 203.907z" fill="#5c586f"/><path d="m209.379 18.55c-22.824 4.453-44.292 12.735-63.723 24.131-3.848-9.287-9.305-17.793-16.045-24.533-24.197-24.197-63.427-24.197-87.623 0-24.196 24.196-24.196 63.427 0 87.623 7.254 7.254 16.555 13.019 26.672 16.895-15.348 28.627-24.067 61.317-24.067 96.011h69.13c-.192-3.877-.292-7.779-.292-11.705-.001-77.45 37.8-146.06 95.948-188.422z" fill="#4f4c5f"/><circle cx="414.04" cy="218.676" fill="#ffbd86" r="41.058"/><path d="m194.662 351.287h-30.76s-43.425 22.404-63.931 80.823l23.513 27.536c9.045-44.12 35.299-82.772 71.178-108.359z" fill="#ff748f"/><path d="m399.893 156.786c-5.153-12.585-17.454-20.767-31.054-20.767-12.587 0-24.227-6.686-30.57-17.558l-8.059-13.816c-5.355-9.18-18.618-9.18-23.973 0l-8.059 13.816c-6.342 10.873-17.983 17.558-30.57 17.558h-38.216c-12.587 0-24.227-6.686-30.57-17.558l-8.059-13.816c-5.355-9.18-18.618-9.18-23.973 0l-8.059 13.816c-6.342 10.873-17.983 17.558-30.57 17.558-13.6 0-25.901 8.181-31.054 20.767-7.816 19.09-12.128 39.986-12.128 61.89 0 90.31 73.211 153.425 163.521 153.425s163.521-63.114 163.521-153.425c0-21.905-4.312-42.8-12.128-61.89z" fill="#fed2a4"/><g><g><g><ellipse cx="160.431" cy="236.19" fill="#ff889e" rx="32.496" ry="25.878"/></g><g><ellipse cx="336.569" cy="236.19" fill="#ff889e" rx="32.496" ry="25.878"/></g></g></g><g><path d="m194.837 215.53c-4.142 0-7.5-3.358-7.5-7.5 0-4.393-3.574-7.967-7.967-7.967s-7.967 3.574-7.967 7.967c0 4.142-3.358 7.5-7.5 7.5s-7.5-3.358-7.5-7.5c0-12.664 10.303-22.967 22.967-22.967s22.967 10.303 22.967 22.967c0 4.142-3.358 7.5-7.5 7.5z" fill="#423e4f"/></g><g><path d="m333.098 215.53c-4.142 0-7.5-3.358-7.5-7.5 0-4.393-3.574-7.967-7.967-7.967s-7.967 3.574-7.967 7.967c0 4.142-3.358 7.5-7.5 7.5s-7.5-3.358-7.5-7.5c0-12.664 10.303-22.967 22.967-22.967s22.967 10.303 22.967 22.967c0 4.142-3.358 7.5-7.5 7.5z" fill="#423e4f"/></g><g><path d="m248.5 241.083c-8.456 0-16.496-3.662-22.061-10.047-2.721-3.123-2.396-7.86.727-10.582 3.124-2.721 7.86-2.396 10.582.727 2.715 3.115 6.634 4.902 10.752 4.902s8.038-1.787 10.752-4.902c2.722-3.123 7.459-3.448 10.582-.727s3.448 7.459.727 10.582c-5.565 6.385-13.605 10.047-22.061 10.047z" fill="#423e4f"/></g><path d="m155.38 432.11v64.89h-65.9c0-25.342 4.15-46.838 10.49-64.89z" fill="#fed2a4"/><path d="m407.52 497h-65.9v-64.89h55.41c6.34 18.052 10.49 39.548 10.49 64.89z" fill="#fed2a4"/><g fill="#ffbd86"><path d="m163.19 350.896c-31.167-39.623-49.76-89.602-49.76-143.924 0-24.656 3.843-48.411 10.94-70.715-12.053 1.363-22.595 9.127-27.263 20.53-2.836 6.927-5.204 14.095-7.079 21.459-2.298-.4-4.656-.627-7.068-.627-22.676 0-41.058 18.382-41.058 41.058s18.382 41.058 41.058 41.058c2.473 0 4.889-.235 7.241-.655 10.739 40.171 37.35 72.249 72.989 91.816z"/><path d="m120.038 493.505c0-21.487 4.114-42.2 11.562-61.395h-31.629c-6.341 18.052-10.491 39.548-10.491 64.89h30.604c-.024-1.162-.046-2.326-.046-3.495z"/></g></g></svg>